#!OML:ASF E:\Steps\Project 1\Capture day 1\Session 2\Subject.ASF
:FULLY-SPECIFIED
:DEGREES
1
root -1.24607 19.6053 20.2365 -152.591 -2.66998 177.83
lowerback -31.9694 -3.09344 -8.68949
upperback -1.62292 -1.70003 -0.446432
thorax 14.9561 -1.66628 3.38879
lowerneck -5.34688 -3.15789 0.0446031
upperneck 7.12767 -4.5461 2.68641
head 3.3016 -2.18908 0.658996
rclavicle -1.09332e-015 -5.48646e-014
rhumerus -33.0767 -16.2846 -80.8181
rradius 28.7678
rwrist -2.64734
rhand -4.10758 -52.8758
rfingers 7.12502
rthumb 21.6506 -81.6853
lclavicle -1.09332e-015 -5.48646e-014
lhumerus -29.1284 -0.189342 83.7235
lradius 20.9019
lwrist 1.46039
lhand -20.3842 -10.5683
lfingers 7.12502
lthumb 5.96894 19.3276
rfemur -23.4328 6.34425 18.4605
rtibia 6.14113
rfoot -17.8083 -2.79678
rtoes -22.9334
lfemur -22.1426 -7.53534 -23.4297
ltibia 5.83211
lfoot -8.12448 0.477021
ltoes -27.1336
2
root -1.25216 19.6052 20.2364 -152.626 -2.67845 177.988
lowerback -31.9748 -3.03868 -8.53188
upperback -1.62875 -1.68901 -0.404071
thorax 14.9517 -1.65103 3.35669
lowerneck -5.4529 -3.25132 -0.0131603
upperneck 7.2807 -4.68221 2.75575
head 3.38106 -2.25429 0.682459
rclavicle -6.85807e-015 7.95139e-016
rhumerus -33.1997 -16.6962 -80.5162
rradius 28.5689
rwrist -2.37834
rhand -3.80367 -53.3599
rfingers 7.12502
rthumb 21.9425 -82.1354
lclavicle -6.85807e-015 7.95139e-016
lhumerus -29.2667 -0.235139 83.7608
lradius 20.7973
lwrist 1.6502
lhand -19.4506 -9.82216
lfingers 7.12502
lthumb 6.87016 20.0464
rfemur -23.4087 6.38025 18.6311
rtibia 6.14643
rfoot -17.7955 -2.78094
rtoes -23.0976
lfemur -22.1179 -7.4393 -23.2862
ltibia 5.84483
lfoot -8.11043 0.435722
ltoes -27.1551
3
root -1.25862 19.6054 20.2378 -152.662 -2.66644 178.049
lowerback -31.9383 -2.98119 -8.42491
upperback -1.64001 -1.6518 -0.445612
thorax 14.916 -1.62561 3.27128
lowerneck -5.49987 -3.34387 0.127239
upperneck 7.39027 -4.82329 2.71527
head 3.42489 -2.32181 0.636455
rclavicle -8.94531e-016 -3.18055e-015
rhumerus -33.2515 -17.0752 -80.3177
rradius 28.31
rwrist -2.26153
rhand -2.71091 -55.1343
rfingers 7.12502
rthumb 22.9914 -83.7831
lclavicle -8.94531e-016 -3.18055e-015
lhumerus -29.4023 -0.253413 83.6372
lradius 20.6031
lwrist 1.34353
lhand -19.4992 -10.0945
lfingers 7.12502
lthumb 6.8233 19.7756
rfemur -23.3912 6.17116 18.7454
rtibia 6.18216
rfoot -17.8277 -2.58172
rtoes -23.0576
lfemur -22.0842 -7.28571 -23.2867
ltibia 5.84966
lfoot -8.07127 0.316581
ltoes -26.8496
4
root -1.26248 19.6059 20.2406 -152.716 -2.67002 178.03
lowerback -31.8544 -2.96757 -8.42346
upperback -1.62215 -1.62962 -0.496994
thorax 14.8962 -1.61231 3.22635
lowerneck -5.56577 -3.40355 0.262161
upperneck 7.54945 -4.93024 2.73738
head 3.49135 -2.37033 0.612587
rclavicle 1.49089e-014 1.03368e-014
rhumerus -33.2048 -17.4433 -80.1553
rradius 27.9186
rwrist -2.03404
rhand -2.24483 -55.7864
rfingers 7.12502
rthumb 23.4386 -84.3788
lclavicle 1.49089e-014 1.03368e-014
lhumerus -29.4317 -0.573466 83.5807
lradius 20.3154
lwrist 1.31925
lhand -20.2703 -11.4559
lfingers 7.12502
lthumb 6.07882 18.4369
rfemur -23.351 6.03314 18.753
rtibia 6.24206
rfoot -17.8798 -2.48262
rtoes -22.8208
lfemur -22.0506 -7.02879 -23.3763
ltibia 5.89368
lfoot -8.08243 -0.0263211
ltoes -25.2224
5
root -1.26655 19.607 20.2436 -152.75 -2.65116 177.983
lowerback -31.7981 -3.00046 -8.47956
upperback -1.59667 -1.64968 -0.506353
thorax 14.9043 -1.6232 3.23936
lowerneck -5.51427 -3.312 0.155574
upperneck 7.44099 -4.80856 2.91142
head 3.45083 -2.30803 0.695632
rclavicle -8.64713e-015 3.18055e-015
rhumerus -33.1643 -17.5901 -80.0326
rradius 27.6735
rwrist -1.90106
rhand -2.25323 -56.0893
rfingers 7.12502
rthumb 23.4305 -84.6828
lclavicle -8.64713e-015 3.18055e-015
lhumerus -29.4799 -0.813165 83.6197
lradius 20.061
lwrist 1.40163
lhand -19.7972 -9.41456
lfingers 7.12502
lthumb 6.53563 20.4646
rfemur -23.3437 5.99672 18.6746
rtibia 6.28125
rfoot -17.8887 -2.41379
rtoes -22.7271
lfemur -22.034 -6.83717 -23.4829
ltibia 5.91879
lfoot -8.08743 -0.337919
ltoes -23.4345
6
root -1.27125 19.6074 20.2478 -152.747 -2.57739 177.947
lowerback -31.7866 -3.02741 -8.54869
upperback -1.58479 -1.6613 -0.487265
thorax 14.9159 -1.63321 3.29253
lowerneck -5.44827 -3.26235 0.0989865
upperneck 7.40369 -4.74097 2.97218
head 3.4277 -2.27518 0.729964
rclavicle 1.07344e-014 3.18055e-014
rhumerus -33.2484 -17.7926 -79.8366
rradius 27.6111
rwrist -1.663
rhand -1.98292 -56.7496
rfingers 7.12502
rthumb 23.6898 -85.3098
lclavicle 1.07344e-014 3.18055e-014
lhumerus -29.3754 -0.369442 83.5145
lradius 19.5523
lwrist 0.874197
lhand -20.4819 -11.7087
lfingers 7.12502
lthumb 5.8746 18.1899
rfemur -23.421 5.87377 18.6161
rtibia 6.36977
rfoot -17.9014 -2.24576
rtoes -23.0874
lfemur -22.0533 -6.69603 -23.5922
ltibia 5.93185
lfoot -8.07125 -0.457669
ltoes -23.4628
7
root -1.27379 19.6083 20.2534 -152.763 -2.54242 177.997
lowerback -31.7204 -3.02741 -8.54094
upperback -1.59613 -1.67425 -0.454827
thorax 14.8769 -1.63711 3.32119
lowerneck -5.48119 -3.46893 0.393024
upperneck 7.92081 -5.05923 2.72709
head 3.60223 -2.43411 0.578537
rclavicle -2.48481e-015 -2.54444e-014
rhumerus -33.3445 -17.9592 -79.6717
rradius 27.5031
rwrist -1.39044
rhand -1.87013 -57.2224
rfingers 7.12502
rthumb 23.7979 -85.7685
lclavicle -2.48481e-015 -2.54444e-014
lhumerus -29.2987 0.201947 83.3154
lradius 19.0561
lwrist 0.309658
lhand -20.0961 -11.2546
lfingers 7.12502
lthumb 6.24705 18.6333
rfemur -23.4809 5.95043 18.6438
rtibia 6.45339
rfoot -17.9128 -2.32841
rtoes -23.6325
lfemur -22.0884 -6.62577 -23.5542
ltibia 5.97051
lfoot -8.05865 -0.445151
ltoes -23.6709
8
root -1.27625 19.6098 20.2592 -152.814 -2.54656 178.021
lowerback -31.5793 -3.04755 -8.54116
upperback -1.62964 -1.71884 -0.437298
thorax 14.7822 -1.65349 3.32707
lowerneck -5.36792 -3.27101 0.219384
upperneck 7.74613 -4.77041 2.78968
head 3.52229 -2.29473 0.646858
rclavicle 2.78299e-015 -3.18055e-015
rhumerus -33.3784 -17.9235 -79.5688
rradius 27.1502
rwrist -1.38827
rhand -2.12589 -55.8853
rfingers 7.12502
rthumb 23.5526 -84.4632
lclavicle 2.78299e-015 -3.18055e-015
lhumerus -29.4106 0.563826 83.1232
lradius 18.7923
lwrist 0.0330196
lhand -19.7786 -11.5867
lfingers 7.12502
lthumb 6.55357 18.2919
rfemur -23.4671 6.12 18.6198
rtibia 6.44996
rfoot -17.887 -2.52778
rtoes -23.704
lfemur -22.0676 -6.65135 -23.5179
ltibia 5.94939
lfoot -7.97344 -0.346454
ltoes -24.2055
9
root -1.27969 19.6095 20.263 -152.816 -2.53517 178.03
lowerback -31.5162 -3.08725 -8.58441
upperback -1.65728 -1.77244 -0.377878
thorax 14.7317 -1.67961 3.3953
lowerneck -5.30811 -3.11436 -0.0214029
upperneck 7.49304 -4.52878 2.88764
head 3.42882 -2.17783 0.735203
rclavicle -6.36111e-015 0
rhumerus -33.4056 -17.9028 -79.4285
rradius 27.0187
rwrist -1.39735
rhand -2.16983 -56.0804
rfingers 7.12502
rthumb 23.5105 -84.6637
lclavicle -6.36111e-015 0
lhumerus -29.5444 0.897881 83.027
lradius 18.6019
lwrist -0.193879
lhand -19.6749 -12.4681
lfingers 7.12502
lthumb 6.65371 17.4073
rfemur -23.5018 6.19266 18.5867
rtibia 6.47304
rfoot -17.881 -2.56412
rtoes -22.8635
lfemur -22.0679 -6.66064 -23.5122
ltibia 5.94479
lfoot -7.95721 -0.306885
ltoes -24.9761
10
root -1.28491 19.6087 20.2669 -152.751 -2.49667 178.059
lowerback -31.5292 -3.08522 -8.58667
upperback -1.69142 -1.78135 -0.330676
thorax 14.7002 -1.68515 3.44422
lowerneck -5.20549 -3.03578 -0.354761
upperneck 7.00595 -4.38757 3.16382
head 3.25604 -2.1078 0.894332
rclavicle -2.28602e-015 -1.03368e-014
rhumerus -33.4998 -18.2146 -79.1723
rradius 26.93
rwrist -1.09437
rhand -2.23757 -56.2273
rfingers 7.12502
rthumb 23.4455 -84.8188
lclavicle -2.28602e-015 -1.03368e-014
lhumerus -29.7034 0.947485 83.0507
lradius 18.4863
lwrist -0.25322
lhand -19.407 -10.1437
lfingers 7.12502
lthumb 6.91228 19.7234
rfemur -23.6416 6.13368 18.6042
rtibia 6.5897
rfoot -17.9028 -2.45825
rtoes -22.7751
lfemur -22.1615 -6.65233 -23.5
ltibia 5.99891
lfoot -8.08109 -0.314205
ltoes -25.4522
11
root -1.291 19.6099 20.2738 -152.696 -2.4427 178.086
lowerback -31.5126 -3.0473 -8.5448
upperback -1.72579 -1.7536 -0.350634
thorax 14.6478 -1.66972 3.41219
lowerneck -5.31816 -3.25527 -0.035984
upperneck 7.34256 -4.71441 2.96375
head 3.38461 -2.26754 0.754529
rclavicle -1.23246e-014 1.03368e-014
rhumerus -33.539 -18.4634 -79.0482
rradius 26.7672
rwrist -0.808379
rhand -2.27744 -56.6187
rfingers 7.12502
rthumb 23.4073 -85.2151
lclavicle -1.23246e-014 1.03368e-014
lhumerus -29.8297 0.820112 83.0322
lradius 18.3685
lwrist -0.215914
lhand -19.5424 -11.3334
lfingers 7.12502
lthumb 6.78154 18.5379
rfemur -23.809 6.01182 18.6313
rtibia 6.72405
rfoot -17.9104 -2.32646
rtoes -23.8427
lfemur -22.2657 -6.69159 -23.4842
ltibia 6.02247
lfoot -8.14494 -0.181281
ltoes -26.5879
12
root -1.29645 19.6087 20.2801 -152.65 -2.39457 178.097
lowerback -31.5184 -3.02512 -8.51496
upperback -1.73783 -1.73325 -0.397184
thorax 14.6311 -1.65864 3.3533
lowerneck -5.55716 -3.4697 0.472453
upperneck 7.97641 -5.05711 2.59583
head 3.6295 -2.43411 0.519929
rclavicle 6.95746e-015 -2.46493e-014
rhumerus -33.5966 -18.6772 -78.9814
rradius 26.6439
rwrist -0.517957
rhand -2.19121 -57.0249
rfingers 7.12502
rthumb 23.49 -85.6108
lclavicle 6.95746e-015 -2.46493e-014
lhumerus -29.8957 0.778156 82.9089
lradius 18.2163
lwrist -0.262601
lhand -19.0673 -11.901
lfingers 7.12502
lthumb 7.24017 17.9551
rfemur -23.9365 6.01141 18.6076
rtibia 6.79065
rfoot -17.9115 -2.28119
rtoes -23.7455
lfemur -22.3461 -6.61471 -23.5156
ltibia 6.05655
lfoot -8.16958 -0.149877
ltoes -27.7186
13
root -1.30419 19.6083 20.2796 -152.725 -2.31685 178.119
lowerback -31.5172 -2.96308 -8.43936
upperback -1.69853 -1.66325 -0.456505
thorax 14.6658 -1.62124 3.27729
lowerneck -5.56153 -3.35373 0.457595
upperneck 7.77908 -4.88787 2.62329
head 3.56044 -2.34912 0.541546
rclavicle 1.19271e-014 2.3059e-014
rhumerus -33.7684 -18.9814 -78.8656
rradius 26.6743
rwrist -0.330132
rhand -2.23121 -57.2554
rfingers 7.12502
rthumb 23.4516 -85.8462
lclavicle 1.19271e-014 2.3059e-014
lhumerus -29.9573 0.633034 82.8494
lradius 18.0553
lwrist -0.363107
lhand -18.6736 -11.8718
lfingers 7.12502
lthumb 7.6202 17.9709
rfemur -23.8816 5.97317 18.5916
rtibia 6.82987
rfoot -17.9001 -2.17196
rtoes -23.1402
lfemur -22.2225 -6.46525 -23.587
ltibia 6.01674
lfoot -8.16081 -0.142792
ltoes -28.5631
14
root -1.30303 19.6092 20.2908 -152.563 -2.31488 178.175
lowerback -31.5721 -2.95661 -8.45125
upperback -1.7525 -1.66155 -0.445852
thorax 14.6259 -1.62379 3.29385
lowerneck -5.4878 -3.24681 0.334908
upperneck 7.49381 -4.72356 2.73044
head 3.45152 -2.26797 0.609473
rclavicle -1.97791e-014 2.38542e-014
rhumerus -33.8831 -19.2629 -78.7176
rradius 26.6025
rwrist -0.267334
rhand -2.43346 -56.8057
rfingers 7.12502
rthumb 23.2576 -85.4211
lclavicle -1.97791e-014 2.38542e-014
lhumerus -30.0107 0.401064 82.8904
lradius 17.9013
lwrist -0.219401
lhand -18.6141 -11.6157
lfingers 7.12502
lthumb 7.6776 18.225
rfemur -24.1863 6.03838 18.6381
rtibia 6.99126
rfoot -17.8586 -2.19681
rtoes -22.9527
lfemur -22.5322 -6.08619 -23.5641
ltibia 6.15266
lfoot -8.08515 -0.462986
ltoes -28.6368
